<?xml version="1.0" encoding="UTF-8"?>
<svg xmlns="http://www.w3.org/2000/svg" xmlns:xlink="http://www.w3.org/1999/xlink" width="180pt" height="54pt" viewBox="0 0 180 54" version="1.1">
<g id="surface1">
<path style=" stroke:none;fill-rule:nonzero;fill:rgb(65.098039%,65.098039%,65.098039%);fill-opacity:1;" d="M 165.203125 0 L 14.300781 0 C 13.753906 0 13.207031 0 12.660156 0.00390625 C 12.199219 0.00390625 11.746094 0.0117188 11.28125 0.0195312 C 10.273438 0.03125 9.269531 0.109375 8.277344 0.257812 C 7.285156 0.410156 6.320312 0.695312 5.425781 1.105469 C 4.527344 1.519531 3.707031 2.054688 2.996094 2.695312 C 2.28125 3.335938 1.683594 4.074219 1.230469 4.882812 C 0.773438 5.691406 0.457031 6.558594 0.292969 7.453125 C 0.125 8.347656 0.0351562 9.25 0.0234375 10.15625 C 0.0078125 10.570312 0.0078125 10.984375 0 11.398438 L 0 42.605469 C 0.0078125 43.023438 0.0078125 43.429688 0.0234375 43.847656 C 0.0351562 44.753906 0.125 45.65625 0.292969 46.550781 C 0.457031 47.445312 0.773438 48.3125 1.230469 49.121094 C 1.683594 49.929688 2.28125 50.664062 2.996094 51.300781 C 3.707031 51.945312 4.527344 52.484375 5.425781 52.894531 C 6.320312 53.304688 7.28125 53.589844 8.277344 53.746094 C 9.269531 53.890625 10.273438 53.972656 11.28125 53.984375 C 11.746094 53.992188 12.199219 53.996094 12.660156 53.996094 C 13.207031 54 13.753906 54 14.300781 54 L 165.203125 54 C 165.742188 54 166.289062 54 166.828125 53.996094 C 167.285156 53.996094 167.753906 53.992188 168.210938 53.984375 C 169.214844 53.972656 170.21875 53.890625 171.210938 53.746094 C 172.207031 53.589844 173.171875 53.300781 174.074219 52.894531 C 174.972656 52.480469 175.789062 51.945312 176.5 51.300781 C 177.214844 50.664062 177.8125 49.925781 178.273438 49.121094 C 178.722656 48.3125 179.039062 47.445312 179.199219 46.550781 C 179.367188 45.65625 179.460938 44.753906 179.480469 43.847656 C 179.484375 43.429688 179.484375 43.023438 179.484375 42.605469 C 179.496094 42.113281 179.496094 41.625 179.496094 41.128906 L 179.496094 12.875 C 179.496094 12.378906 179.496094 11.890625 179.484375 11.398438 C 179.484375 10.984375 179.484375 10.570312 179.480469 10.15625 C 179.460938 9.25 179.367188 8.347656 179.199219 7.453125 C 179.039062 6.558594 178.722656 5.695312 178.273438 4.882812 C 177.34375 3.261719 175.878906 1.9375 174.074219 1.105469 C 173.171875 0.695312 172.207031 0.410156 171.210938 0.257812 C 170.21875 0.109375 169.214844 0.03125 168.210938 0.0195312 C 167.753906 0.0117188 167.285156 0.00390625 166.828125 0.00390625 C 166.289062 0 165.742188 0 165.203125 0 Z M 165.203125 0 "/>
<path style=" stroke:none;fill-rule:nonzero;fill:rgb(0%,0%,0%);fill-opacity:1;" d="M 12.667969 52.820312 C 12.210938 52.820312 11.765625 52.8125 11.3125 52.804688 C 10.371094 52.792969 9.433594 52.71875 8.507812 52.585938 C 7.640625 52.449219 6.804688 52.199219 6.023438 51.84375 C 5.246094 51.492188 4.539062 51.027344 3.925781 50.472656 C 3.304688 49.921875 2.789062 49.285156 2.394531 48.585938 C 2 47.882812 1.722656 47.128906 1.582031 46.347656 C 1.425781 45.511719 1.34375 44.667969 1.332031 43.816406 C 1.320312 43.535156 1.308594 42.585938 1.308594 42.585938 L 1.308594 11.398438 C 1.308594 11.398438 1.324219 10.464844 1.332031 10.191406 C 1.34375 9.34375 1.425781 8.5 1.578125 7.664062 C 1.722656 6.882812 1.996094 6.128906 2.394531 5.421875 C 2.785156 4.722656 3.300781 4.085938 3.917969 3.535156 C 4.535156 2.976562 5.246094 2.511719 6.019531 2.152344 C 6.800781 1.796875 7.636719 1.550781 8.5 1.417969 C 9.429688 1.28125 10.371094 1.207031 11.316406 1.199219 L 12.667969 1.179688 L 166.820312 1.179688 L 168.191406 1.199219 C 169.125 1.207031 170.054688 1.28125 170.976562 1.417969 C 171.851562 1.550781 172.695312 1.800781 173.484375 2.15625 C 175.042969 2.878906 176.308594 4.023438 177.105469 5.425781 C 177.496094 6.125 177.769531 6.875 177.910156 7.652344 C 178.066406 8.492188 178.152344 9.34375 178.171875 10.199219 C 178.175781 10.582031 178.175781 10.992188 178.175781 11.398438 C 178.1875 11.90625 178.1875 12.386719 178.1875 12.875 L 178.1875 41.128906 C 178.1875 41.617188 178.1875 42.097656 178.175781 42.578125 C 178.175781 43.019531 178.175781 43.421875 178.167969 43.835938 C 178.152344 44.671875 178.066406 45.507812 177.914062 46.335938 C 177.773438 47.121094 177.5 47.882812 177.101562 48.589844 C 176.707031 49.28125 176.191406 49.914062 175.578125 50.460938 C 174.964844 51.019531 174.257812 51.484375 173.480469 51.84375 C 172.691406 52.199219 171.847656 52.453125 170.976562 52.585938 C 170.050781 52.71875 169.113281 52.792969 168.175781 52.804688 C 167.734375 52.8125 167.273438 52.820312 166.828125 52.820312 Z M 12.667969 52.820312 "/>
<path style=" stroke:none;fill-rule:nonzero;fill:rgb(100%,100%,100%);fill-opacity:1;" d="M 37.152344 27.40625 C 37.1875 25.117188 38.519531 23 40.6875 21.800781 C 39.3125 20.035156 37.09375 18.957031 34.703125 18.886719 C 32.183594 18.648438 29.742188 20.246094 28.457031 20.246094 C 27.148438 20.246094 25.171875 18.910156 23.042969 18.949219 C 20.246094 19.03125 17.695312 20.429688 16.335938 22.632812 C 13.433594 27.152344 15.597656 33.796875 18.375 37.449219 C 19.765625 39.242188 21.390625 41.238281 23.519531 41.167969 C 25.597656 41.089844 26.375 39.972656 28.886719 39.972656 C 31.375 39.972656 32.105469 41.167969 34.273438 41.121094 C 36.507812 41.089844 37.914062 39.324219 39.253906 37.519531 C 40.253906 36.246094 41.023438 34.835938 41.53125 33.34375 C 38.878906 32.335938 37.15625 29.996094 37.152344 27.40625 Z M 37.152344 27.40625 "/>
<path style=" stroke:none;fill-rule:nonzero;fill:rgb(100%,100%,100%);fill-opacity:1;" d="M 33.054688 16.484375 C 34.273438 15.167969 34.871094 13.480469 34.726562 11.773438 C 32.867188 11.949219 31.148438 12.75 29.917969 14.011719 C 28.699219 15.261719 28.082031 16.894531 28.199219 18.550781 C 30.085938 18.566406 31.875 17.808594 33.054688 16.484375 Z M 33.054688 16.484375 "/>
<path style=" stroke:none;fill-rule:nonzero;fill:rgb(100%,100%,100%);fill-opacity:1;" d="M 63.453125 36.636719 L 56.351562 36.636719 L 54.648438 41.167969 L 51.640625 41.167969 L 58.367188 24.40625 L 61.492188 24.40625 L 68.214844 41.167969 L 65.15625 41.167969 Z M 57.089844 34.546875 L 62.714844 34.546875 L 59.941406 27.195312 L 59.863281 27.195312 Z M 57.089844 34.546875 "/>
<path style=" stroke:none;fill-rule:nonzero;fill:rgb(100%,100%,100%);fill-opacity:1;" d="M 82.738281 35.058594 C 82.738281 38.855469 80.480469 41.296875 77.070312 41.296875 C 75.308594 41.378906 73.652344 40.550781 72.800781 39.160156 L 72.734375 39.160156 L 72.734375 45.214844 L 69.945312 45.214844 L 69.945312 28.945312 L 72.644531 28.945312 L 72.644531 30.980469 L 72.695312 30.980469 C 73.585938 29.597656 75.246094 28.769531 77.019531 28.820312 C 80.46875 28.820312 82.738281 31.269531 82.738281 35.058594 Z M 79.875 35.058594 C 79.875 32.585938 78.453125 30.957031 76.285156 30.957031 C 74.15625 30.957031 72.722656 32.617188 72.722656 35.058594 C 72.722656 37.523438 74.15625 39.171875 76.285156 39.171875 C 78.453125 39.171875 79.875 37.554688 79.875 35.058594 Z M 79.875 35.058594 "/>
<path style=" stroke:none;fill-rule:nonzero;fill:rgb(100%,100%,100%);fill-opacity:1;" d="M 97.6875 35.058594 C 97.6875 38.855469 95.429688 41.296875 92.019531 41.296875 C 90.257812 41.378906 88.597656 40.550781 87.746094 39.160156 L 87.683594 39.160156 L 87.683594 45.214844 L 84.894531 45.214844 L 84.894531 28.945312 L 87.59375 28.945312 L 87.59375 30.980469 L 87.644531 30.980469 C 88.53125 29.597656 90.195312 28.769531 91.96875 28.820312 C 95.414062 28.820312 97.6875 31.269531 97.6875 35.058594 Z M 94.820312 35.058594 C 94.820312 32.585938 93.402344 30.957031 91.234375 30.957031 C 89.101562 30.957031 87.671875 32.617188 87.671875 35.058594 C 87.671875 37.523438 89.101562 39.171875 91.234375 39.171875 C 93.402344 39.171875 94.820312 37.554688 94.820312 35.058594 Z M 94.820312 35.058594 "/>
<path style=" stroke:none;fill-rule:nonzero;fill:rgb(100%,100%,100%);fill-opacity:1;" d="M 107.566406 36.5 C 107.773438 38.160156 109.566406 39.253906 112.019531 39.253906 C 114.367188 39.253906 116.058594 38.160156 116.058594 36.664062 C 116.058594 35.359375 115.039062 34.582031 112.625 34.046875 L 110.210938 33.523438 C 106.789062 32.78125 105.203125 31.339844 105.203125 29.003906 C 105.203125 26.113281 108.003906 24.125 111.980469 24.125 C 115.917969 24.125 118.613281 26.113281 118.707031 29.003906 L 115.890625 29.003906 C 115.722656 27.332031 114.1875 26.324219 111.941406 26.324219 C 109.695312 26.324219 108.160156 27.34375 108.160156 28.832031 C 108.160156 30.015625 109.140625 30.714844 111.542969 31.246094 L 113.59375 31.699219 C 117.414062 32.515625 119.003906 33.894531 119.003906 36.347656 C 119.003906 39.484375 116.226562 41.449219 111.8125 41.449219 C 107.679688 41.449219 104.890625 39.53125 104.710938 36.5 Z M 107.566406 36.5 "/>
<path style=" stroke:none;fill-rule:nonzero;fill:rgb(100%,100%,100%);fill-opacity:1;" d="M 125.019531 26.054688 L 125.019531 28.945312 L 127.601562 28.945312 L 127.601562 30.933594 L 125.019531 30.933594 L 125.019531 37.671875 C 125.019531 38.71875 125.535156 39.207031 126.671875 39.207031 C 126.976562 39.203125 127.285156 39.183594 127.589844 39.148438 L 127.589844 41.125 C 127.078125 41.210938 126.558594 41.25 126.039062 41.238281 C 123.289062 41.238281 122.21875 40.308594 122.21875 37.941406 L 122.21875 30.933594 L 120.242188 30.933594 L 120.242188 28.945312 L 122.21875 28.945312 L 122.21875 26.054688 Z M 125.019531 26.054688 "/>
<path style=" stroke:none;fill-rule:nonzero;fill:rgb(100%,100%,100%);fill-opacity:1;" d="M 129.097656 35.058594 C 129.097656 31.214844 131.613281 28.796875 135.539062 28.796875 C 139.476562 28.796875 141.980469 31.214844 141.980469 35.058594 C 141.980469 38.914062 139.488281 41.320312 135.539062 41.320312 C 131.589844 41.320312 129.097656 38.914062 129.097656 35.058594 Z M 139.140625 35.058594 C 139.140625 32.421875 137.796875 30.863281 135.539062 30.863281 C 133.28125 30.863281 131.9375 32.433594 131.9375 35.058594 C 131.9375 37.707031 133.28125 39.253906 135.539062 39.253906 C 137.796875 39.253906 139.140625 37.707031 139.140625 35.058594 Z M 139.140625 35.058594 "/>
<path style=" stroke:none;fill-rule:nonzero;fill:rgb(100%,100%,100%);fill-opacity:1;" d="M 144.277344 28.945312 L 146.9375 28.945312 L 146.9375 31.027344 L 147.003906 31.027344 C 147.371094 29.6875 148.738281 28.765625 150.269531 28.820312 C 150.589844 28.816406 150.910156 28.851562 151.222656 28.914062 L 151.222656 31.257812 C 150.820312 31.148438 150.394531 31.097656 149.972656 31.109375 C 149.152344 31.078125 148.359375 31.371094 147.800781 31.914062 C 147.242188 32.453125 146.972656 33.1875 147.066406 33.921875 L 147.066406 41.167969 L 144.277344 41.167969 Z M 144.277344 28.945312 "/>
<path style=" stroke:none;fill-rule:nonzero;fill:rgb(100%,100%,100%);fill-opacity:1;" d="M 164.078125 37.578125 C 163.703125 39.796875 161.300781 41.320312 158.230469 41.320312 C 154.277344 41.320312 151.824219 38.9375 151.824219 35.117188 C 151.824219 31.285156 154.292969 28.796875 158.113281 28.796875 C 161.867188 28.796875 164.230469 31.121094 164.230469 34.824219 L 164.230469 35.683594 L 154.640625 35.683594 L 154.640625 35.835938 C 154.550781 36.746094 154.898438 37.648438 155.597656 38.308594 C 156.296875 38.972656 157.277344 39.332031 158.292969 39.300781 C 159.644531 39.414062 160.921875 38.714844 161.429688 37.578125 Z M 154.652344 33.933594 L 161.441406 33.933594 C 161.492188 33.113281 161.164062 32.316406 160.53125 31.726562 C 159.898438 31.136719 159.019531 30.8125 158.113281 30.828125 C 157.195312 30.824219 156.3125 31.148438 155.664062 31.730469 C 155.015625 32.316406 154.652344 33.105469 154.652344 33.933594 Z M 154.652344 33.933594 "/>
<path style=" stroke:none;fill-rule:nonzero;fill:rgb(100%,100%,100%);fill-opacity:1;" d="M 56.738281 11.785156 C 57.921875 11.710938 59.082031 12.117188 59.898438 12.890625 C 60.714844 13.667969 61.101562 14.730469 60.949219 15.789062 C 60.949219 18.363281 59.40625 19.84375 56.738281 19.84375 L 53.507812 19.84375 L 53.507812 11.785156 Z M 54.898438 18.703125 L 56.585938 18.703125 C 57.429688 18.75 58.253906 18.449219 58.824219 17.886719 C 59.398438 17.324219 59.660156 16.558594 59.535156 15.804688 C 59.648438 15.054688 59.386719 14.296875 58.816406 13.738281 C 58.242188 13.183594 57.425781 12.882812 56.585938 12.925781 L 54.898438 12.925781 Z M 54.898438 18.703125 "/>
<path style=" stroke:none;fill-rule:nonzero;fill:rgb(100%,100%,100%);fill-opacity:1;" d="M 62.519531 16.800781 C 62.40625 15.710938 62.984375 14.65625 64.019531 14.078125 C 65.050781 13.5 66.359375 13.5 67.394531 14.078125 C 68.425781 14.65625 69.007812 15.710938 68.890625 16.800781 C 69.007812 17.890625 68.429688 18.945312 67.394531 19.527344 C 66.359375 20.105469 65.050781 20.105469 64.015625 19.527344 C 62.984375 18.945312 62.402344 17.890625 62.519531 16.800781 Z M 67.519531 16.800781 C 67.519531 15.480469 66.863281 14.710938 65.707031 14.710938 C 64.550781 14.710938 63.898438 15.480469 63.898438 16.800781 C 63.898438 18.128906 64.550781 18.894531 65.707031 18.894531 C 66.863281 18.894531 67.519531 18.121094 67.519531 16.800781 Z M 67.519531 16.800781 "/>
<path style=" stroke:none;fill-rule:nonzero;fill:rgb(100%,100%,100%);fill-opacity:1;" d="M 77.359375 19.84375 L 75.976562 19.84375 L 74.582031 15.363281 L 74.476562 15.363281 L 73.085938 19.84375 L 71.714844 19.84375 L 69.855469 13.761719 L 71.207031 13.761719 L 72.417969 18.402344 L 72.515625 18.402344 L 73.90625 13.761719 L 75.183594 13.761719 L 76.570312 18.402344 L 76.675781 18.402344 L 77.882812 13.761719 L 79.214844 13.761719 Z M 77.359375 19.84375 "/>
<path style=" stroke:none;fill-rule:nonzero;fill:rgb(100%,100%,100%);fill-opacity:1;" d="M 80.78125 13.761719 L 82.0625 13.761719 L 82.0625 14.730469 L 82.164062 14.730469 C 82.507812 14.019531 83.320312 13.582031 84.179688 13.644531 C 84.84375 13.601562 85.496094 13.832031 85.953125 14.269531 C 86.40625 14.710938 86.613281 15.3125 86.515625 15.90625 L 86.515625 19.84375 L 85.183594 19.84375 L 85.183594 16.207031 C 85.183594 15.230469 84.710938 14.746094 83.726562 14.746094 C 83.273438 14.726562 82.835938 14.886719 82.527344 15.183594 C 82.214844 15.476562 82.066406 15.882812 82.113281 16.285156 L 82.113281 19.84375 L 80.78125 19.84375 Z M 80.78125 13.761719 "/>
<path style=" stroke:none;fill-rule:nonzero;fill:rgb(100%,100%,100%);fill-opacity:1;" d="M 88.640625 11.390625 L 89.972656 11.390625 L 89.972656 19.84375 L 88.640625 19.84375 Z M 88.640625 11.390625 "/>
<path style=" stroke:none;fill-rule:nonzero;fill:rgb(100%,100%,100%);fill-opacity:1;" d="M 91.828125 16.800781 C 91.710938 15.710938 92.292969 14.65625 93.324219 14.078125 C 94.359375 13.5 95.667969 13.5 96.699219 14.078125 C 97.734375 14.65625 98.3125 15.710938 98.199219 16.800781 C 98.316406 17.890625 97.734375 18.945312 96.703125 19.527344 C 95.667969 20.105469 94.359375 20.105469 93.324219 19.527344 C 92.289062 18.945312 91.707031 17.890625 91.828125 16.800781 Z M 96.828125 16.800781 C 96.828125 15.480469 96.167969 14.710938 95.015625 14.710938 C 93.855469 14.710938 93.203125 15.480469 93.203125 16.800781 C 93.203125 18.128906 93.855469 18.894531 95.015625 18.894531 C 96.167969 18.894531 96.828125 18.121094 96.828125 16.800781 Z M 96.828125 16.800781 "/>
<path style=" stroke:none;fill-rule:nonzero;fill:rgb(100%,100%,100%);fill-opacity:1;" d="M 99.601562 18.121094 C 99.601562 17.027344 100.507812 16.398438 102.113281 16.308594 L 103.941406 16.214844 L 103.941406 15.6875 C 103.941406 15.046875 103.472656 14.683594 102.558594 14.683594 C 101.816406 14.683594 101.300781 14.929688 101.152344 15.359375 L 99.863281 15.359375 C 100 14.316406 101.089844 13.644531 102.621094 13.644531 C 104.316406 13.644531 105.269531 14.40625 105.269531 15.6875 L 105.269531 19.84375 L 103.988281 19.84375 L 103.988281 18.988281 L 103.882812 18.988281 C 103.445312 19.613281 102.671875 19.976562 101.851562 19.941406 C 101.28125 19.996094 100.707031 19.828125 100.277344 19.480469 C 99.851562 19.136719 99.605469 18.640625 99.601562 18.121094 Z M 103.941406 17.601562 L 103.941406 17.09375 L 102.292969 17.191406 C 101.363281 17.246094 100.941406 17.53125 100.941406 18.066406 C 100.941406 18.613281 101.46875 18.933594 102.195312 18.933594 C 102.625 18.972656 103.050781 18.851562 103.382812 18.601562 C 103.710938 18.351562 103.914062 17.992188 103.941406 17.601562 Z M 103.941406 17.601562 "/>
<path style=" stroke:none;fill-rule:nonzero;fill:rgb(100%,100%,100%);fill-opacity:1;" d="M 107.023438 16.800781 C 107.023438 14.878906 108.121094 13.664062 109.824219 13.664062 C 110.6875 13.625 111.496094 14.042969 111.898438 14.730469 L 111.996094 14.730469 L 111.996094 11.390625 L 113.328125 11.390625 L 113.328125 19.84375 L 112.050781 19.84375 L 112.050781 18.882812 L 111.945312 18.882812 C 111.515625 19.5625 110.695312 19.972656 109.824219 19.941406 C 108.109375 19.941406 107.023438 18.726562 107.023438 16.800781 Z M 108.398438 16.800781 C 108.398438 18.089844 109.074219 18.863281 110.203125 18.863281 C 111.328125 18.863281 112.023438 18.078125 112.023438 16.804688 C 112.023438 15.539062 111.320312 14.738281 110.203125 14.738281 C 109.082031 14.738281 108.398438 15.519531 108.398438 16.800781 Z M 108.398438 16.800781 "/>
<path style=" stroke:none;fill-rule:nonzero;fill:rgb(100%,100%,100%);fill-opacity:1;" d="M 118.84375 16.800781 C 118.730469 15.710938 119.308594 14.65625 120.34375 14.078125 C 121.375 13.5 122.683594 13.5 123.71875 14.078125 C 124.75 14.65625 125.332031 15.710938 125.214844 16.800781 C 125.332031 17.890625 124.753906 18.945312 123.71875 19.527344 C 122.683594 20.105469 121.375 20.105469 120.339844 19.527344 C 119.308594 18.945312 118.726562 17.890625 118.84375 16.800781 Z M 123.84375 16.800781 C 123.84375 15.480469 123.1875 14.710938 122.03125 14.710938 C 120.875 14.710938 120.222656 15.480469 120.222656 16.800781 C 120.222656 18.128906 120.875 18.894531 122.03125 18.894531 C 123.1875 18.894531 123.84375 18.121094 123.84375 16.800781 Z M 123.84375 16.800781 "/>
<path style=" stroke:none;fill-rule:nonzero;fill:rgb(100%,100%,100%);fill-opacity:1;" d="M 127.003906 13.761719 L 128.289062 13.761719 L 128.289062 14.730469 L 128.386719 14.730469 C 128.734375 14.019531 129.542969 13.582031 130.402344 13.644531 C 131.066406 13.601562 131.722656 13.832031 132.175781 14.269531 C 132.628906 14.710938 132.839844 15.3125 132.742188 15.90625 L 132.742188 19.84375 L 131.40625 19.84375 L 131.40625 16.207031 C 131.40625 15.230469 130.9375 14.746094 129.949219 14.746094 C 129.5 14.726562 129.058594 14.886719 128.75 15.183594 C 128.441406 15.476562 128.289062 15.882812 128.335938 16.285156 L 128.335938 19.84375 L 127.003906 19.84375 Z M 127.003906 13.761719 "/>
<path style=" stroke:none;fill-rule:nonzero;fill:rgb(100%,100%,100%);fill-opacity:1;" d="M 140.273438 12.25 L 140.273438 13.789062 L 141.734375 13.789062 L 141.734375 14.800781 L 140.273438 14.800781 L 140.273438 17.925781 C 140.273438 18.5625 140.5625 18.84375 141.226562 18.84375 C 141.398438 18.84375 141.566406 18.832031 141.734375 18.816406 L 141.734375 19.8125 C 141.496094 19.851562 141.253906 19.875 141.011719 19.875 C 139.527344 19.875 138.9375 19.40625 138.9375 18.234375 L 138.9375 14.800781 L 137.867188 14.800781 L 137.867188 13.789062 L 138.9375 13.789062 L 138.9375 12.25 Z M 140.273438 12.25 "/>
<path style=" stroke:none;fill-rule:nonzero;fill:rgb(100%,100%,100%);fill-opacity:1;" d="M 143.558594 11.390625 L 144.878906 11.390625 L 144.878906 14.738281 L 144.984375 14.738281 C 145.347656 14.023438 146.171875 13.585938 147.042969 13.652344 C 147.707031 13.617188 148.347656 13.851562 148.796875 14.292969 C 149.25 14.730469 149.457031 15.324219 149.371094 15.917969 L 149.371094 19.84375 L 148.035156 19.84375 L 148.035156 16.214844 C 148.035156 15.242188 147.53125 14.75 146.589844 14.75 C 146.125 14.714844 145.671875 14.867188 145.34375 15.164062 C 145.015625 15.460938 144.847656 15.875 144.890625 16.292969 L 144.890625 19.84375 L 143.558594 19.84375 Z M 143.558594 11.390625 "/>
<path style=" stroke:none;fill-rule:nonzero;fill:rgb(100%,100%,100%);fill-opacity:1;" d="M 157.140625 18.199219 C 156.769531 19.347656 155.535156 20.089844 154.214844 19.960938 C 153.316406 19.980469 152.449219 19.644531 151.847656 19.039062 C 151.246094 18.4375 150.972656 17.625 151.09375 16.820312 C 150.976562 16.015625 151.25 15.203125 151.847656 14.59375 C 152.445312 13.984375 153.304688 13.640625 154.210938 13.644531 C 156.089844 13.644531 157.222656 14.800781 157.222656 16.710938 L 157.222656 17.128906 L 152.453125 17.128906 L 152.453125 17.195312 C 152.410156 17.648438 152.582031 18.09375 152.925781 18.425781 C 153.265625 18.757812 153.75 18.941406 154.25 18.9375 C 154.902344 19.007812 155.539062 18.71875 155.859375 18.199219 Z M 152.453125 16.242188 L 155.863281 16.242188 C 155.898438 15.828125 155.738281 15.421875 155.421875 15.121094 C 155.105469 14.824219 154.660156 14.65625 154.203125 14.667969 C 153.734375 14.660156 153.289062 14.824219 152.957031 15.121094 C 152.628906 15.417969 152.445312 15.824219 152.453125 16.242188 Z M 152.453125 16.242188 "/>
</g>
</svg>
